{
	"asset":{
		"generator":"Khronos glTF Blender I/O v4.1.63",
		"version":"2.0"
	},
	"scene":0,
	"scenes":[
		{
			"name":"Scene",
			"nodes":[
				0
			]
		}
	],
	"nodes":[
		{
			"mesh":0,
			"name":"Plane",
			"translation":[
				1.2000000476837158,
				0,
				0
			]
		}
	],
	"materials":[
		{
			"doubleSided":true,
			"name":"Material.012",
			"pbrMetallicRoughness":{
				"baseColorTexture":{
					"index":0
				},
				"metallicFactor":0,
				"roughnessFactor":0.5
			}
		}
	],
	"meshes":[
		{
			"name":"Plane.001",
			"primitives":[
				{
					"attributes":{
						"POSITION":0,
						"NORMAL":1,
						"TEXCOORD_0":2
					},
					"indices":3,
					"material":0
				}
			]
		}
	],
	"textures":[
		{
			"sampler":0,
			"source":0
		}
	],
	"images":[
		{
			"mimeType":"image/jpeg",
			"name":"Textura base 2",
			"uri":"Textura%20base%202.jpg"
		}
	],
	"accessors":[
		{
			"bufferView":0,
			"componentType":5126,
			"count":46,
			"max":[
				4,
				6,
				8.365921020507812
			],
			"min":[
				-7.336541175842285,
				-0.30000001192092896,
				-4.300000190734863
			],
			"type":"VEC3"
		},
		{
			"bufferView":1,
			"componentType":5126,
			"count":46,
			"type":"VEC3"
		},
		{
			"bufferView":2,
			"componentType":5126,
			"count":46,
			"type":"VEC2"
		},
		{
			"bufferView":3,
			"componentType":5123,
			"count":78,
			"type":"SCALAR"
		}
	],
	"bufferViews":[
		{
			"buffer":0,
			"byteLength":552,
			"byteOffset":0,
			"target":34962
		},
		{
			"buffer":0,
			"byteLength":552,
			"byteOffset":552,
			"target":34962
		},
		{
			"buffer":0,
			"byteLength":368,
			"byteOffset":1104,
			"target":34962
		},
		{
			"buffer":0,
			"byteLength":156,
			"byteOffset":1472,
			"target":34963
		}
	],
	"samplers":[
		{
			"magFilter":9729,
			"minFilter":9987
		}
	],
	"buffers":[
		{
			"byteLength":1628,
			"uri":"Prueba3.bin"
		}
	]
}
